    <svg
      id="logo"
      width="28"
      height="28"
      viewBox="0 0 28 28"
      fill="none"
      xmlns="http://www.w3.org/2000/svg"
    >
      <rect width="28" height="28" rx="14" fill="white" />
      <path
        d="M3.648 13.336C3.648 12.312 3.84 11.296 4.224 10.288C4.608 9.28 5.168 8.368 5.904 7.552C6.64 6.736 7.536 6.088 8.592 5.608C9.648 5.112 10.848 4.864 12.192 4.864C13.776 4.864 15.16 5.208 16.344 5.896C17.528 6.584 18.408 7.48 18.984 8.584L15.96 10.696C15.704 10.104 15.36 9.64 14.928 9.304C14.496 8.952 14.032 8.712 13.536 8.584C13.04 8.44 12.56 8.368 12.096 8.368C11.088 8.368 10.256 8.624 9.6 9.136C8.944 9.648 8.456 10.296 8.136 11.08C7.816 11.864 7.656 12.664 7.656 13.48C7.656 14.376 7.84 15.224 8.208 16.024C8.576 16.808 9.096 17.44 9.768 17.92C10.44 18.4 11.232 18.64 12.144 18.64C12.624 18.64 13.112 18.568 13.608 18.424C14.104 18.264 14.56 18.008 14.976 17.656C15.408 17.304 15.736 16.848 15.96 16.288L19.176 18.184C18.84 19.032 18.288 19.752 17.52 20.344C16.752 20.92 15.88 21.368 14.904 21.688C13.944 21.992 12.992 22.144 12.048 22.144C10.816 22.144 9.688 21.896 8.664 21.4C7.64 20.888 6.752 20.216 6 19.384C5.248 18.536 4.664 17.592 4.248 16.552C3.848 15.496 3.648 14.424 3.648 13.336Z"
        fill="#111111"
      />
      <path d="M20.8194 22V18.088H23.9634V22H20.8194Z" fill="#1C7ED6" />
    </svg>